<?xml version="1.0" encoding="UTF-8"?>
<svg width="32px" height="28px" viewBox="0 0 32 28" version="1.1" xmlns="http://www.w3.org/2000/svg" xmlns:xlink="http://www.w3.org/1999/xlink">
    <!-- Generator: Sketch 52.5 (67469) - http://www.bohemiancoding.com/sketch -->
    <title>定车</title>
    <desc>Created with Sketch.</desc>
    <defs>
        <rect id="path-1" x="229" y="174" width="390" height="496" rx="8"></rect>
        <filter x="-3.8%" y="-1.8%" width="107.7%" height="106.0%" filterUnits="objectBoundingBox" id="filter-2">
            <feOffset dx="0" dy="6" in="SourceAlpha" result="shadowOffsetOuter1"></feOffset>
            <feGaussianBlur stdDeviation="4" in="shadowOffsetOuter1" result="shadowBlurOuter1"></feGaussianBlur>
            <feColorMatrix values="0 0 0 0 0   0 0 0 0 0   0 0 0 0 0  0 0 0 0.12 0" type="matrix" in="shadowBlurOuter1"></feColorMatrix>
        </filter>
    </defs>
    <g id="页面1" stroke="none" stroke-width="1" fill="none" fill-rule="evenodd">
        <g id="首页-copy" transform="translate(-255.000000, -279.000000)">
            <rect fill="#F2F2F2" x="0" y="0" width="1920" height="1080"></rect>
            <g id="矩形-copy-17">
                <use fill="black" fill-opacity="1" filter="url(#filter-2)" xlink:href="#path-1"></use>
                <use fill="#FFFFFF" fill-rule="evenodd" xlink:href="#path-1"></use>
            </g>
            <g id="定车" transform="translate(255.000000, 283.000000)" fill="#333333" fill-rule="nonzero">
                <path d="M31.8166642,20 L27.2463146,20 C27.1492325,20 27.0705319,19.9228077 27.0705319,19.8275862 L27.0705319,19.6551724 C27.0705319,19.6094454 27.0890518,19.5655913 27.1220175,19.5332574 C27.1549831,19.5009236 27.1996941,19.4827586 27.2463146,19.4827586 L31.8166642,19.4827586 C31.8632846,19.4827586 31.9079956,19.5009236 31.9409613,19.5332574 C31.9739269,19.5655913 31.9924469,19.6094454 31.9924468,19.6551724 L31.9924468,19.8275862 C31.9924468,19.8733132 31.9739269,19.9171673 31.9409613,19.9495012 C31.9079956,19.981835 31.8632846,20 31.8166642,20 Z M31.4650988,18.9655172 L27.59788,18.9655172 C27.3066337,18.9655172 27.0705319,18.7339404 27.0705319,18.4482759 L27.0705319,17.7586207 C27.070532,17.4729562 27.3066337,17.2413793 27.59788,17.2413793 L28.8283587,17.2413793 L28.8283587,16.5796552 C28.2076701,16.3136207 27.7736626,15.7068966 27.7736626,15 C27.7736626,14.0477586 28.5606417,13.2758621 29.5314894,13.2758621 C30.5023371,13.2758621 31.2893161,14.0477586 31.2893161,15 C31.2893161,15.7068965 30.8551329,16.3136207 30.2346201,16.5796552 L30.2346201,17.2413793 L31.4650988,17.2413793 C31.7563451,17.2413793 31.9924468,17.4729562 31.9924468,17.7586207 L31.9924468,18.4482759 C31.9924468,18.7339404 31.7563451,18.9655172 31.4650988,18.9655172 Z M27.7736626,2.06758621 C27.654482,1.72724139 27.5375865,1.55017242 27.2463146,1.55017242 L21.621269,1.55017242 C21.4813772,1.55017242 21.3472175,1.60469101 21.2483155,1.70172987 C21.1494135,1.79876874 21.0938744,1.9303754 21.093921,2.06758621 L21.093921,6.55172414 L20.2150076,6.55172414 L20.2150076,2.06896551 C20.2150076,1.78330099 19.9789059,1.55172414 19.6876596,1.55172414 L11.9532219,1.55172414 C11.6619756,1.55172414 11.4258739,1.78330099 11.4258739,2.06896551 L11.4258739,9.65517242 C11.4258739,9.94083694 11.6619756,10.1724138 11.9532219,10.1724138 L18.9845289,10.1724138 L18.9845289,17.2413793 L9.66804711,17.2413793 C9.66804711,15.5274138 8.25141454,14.137931 6.50395898,14.137931 C4.75650342,14.137931 3.33987083,15.5274138 3.33987083,17.2413793 L1.75782675,17.2413793 C0.786979027,17.2413793 0,16.5396552 0,15.6739655 L0,1.56741379 C0,0.701724141 0.786979027,0 1.75782675,0 L27.2463146,0 C28.2171623,0 28.5889427,0.741379316 29.0041414,1.56741379 L30.8674377,6.55172414 L29.4576607,6.55172414 L27.7736626,2.06758621 Z M10.5469605,2.06896551 C10.5469605,1.78330099 10.3108587,1.55172415 10.0196125,1.55172414 L2.28517478,1.55172414 C1.99392851,1.55172414 1.75782676,1.78330099 1.75782675,2.06896551 L1.75782675,9.65517242 C1.75782676,9.94083694 1.99392851,10.1724138 2.28517478,10.1724138 L10.0196125,10.1724138 C10.3108587,10.1724138 10.5469605,9.94083694 10.5469605,9.65517242 L10.5469605,2.06896551 Z M6.50395898,14.6551724 C7.96014266,14.6551724 9.1406991,15.8131035 9.1406991,17.2413793 C9.1406991,18.6696552 7.96014266,19.8275862 6.50395898,19.8275862 C5.0477753,19.8275862 3.86721886,18.6696552 3.86721886,17.2413793 C3.86721886,15.8131035 5.0477753,14.6551724 6.50395898,14.6551724 Z M20.9181383,7.93103449 L29.7072721,7.93103449 C29.9985183,7.93103449 30.2346201,8.16261134 30.2346201,8.44827586 L30.2346201,12.6874138 C30.0064646,12.6205124 29.7696223,12.5864219 29.5314894,12.5862069 C29.2869757,12.5862069 29.0512511,12.6224138 28.8283587,12.6874138 L28.8283587,9.31034482 L21.7970517,9.31034482 L21.7970517,18.6206896 L26.3674012,18.6206896 L26.3674012,20 L20.9181383,20 C20.626892,20 20.3907903,19.7684231 20.3907903,19.4827586 L20.3907903,8.44827586 C20.3907903,8.16261134 20.6268921,7.93103449 20.9181383,7.93103449 Z M22.6759651,14.4827586 L26.5431839,14.4827586 L26.5431839,15 L22.6759651,15 L22.6759651,14.4827586 Z M22.6759651,13.1034483 L26.8947493,13.1034483 L26.8947493,13.6206896 L22.6759651,13.6206896 L22.6759651,13.1034483 Z M22.6759651,10.3448276 L27.9494453,10.3448276 L27.9494453,10.862069 L22.6759651,10.862069 L22.6759651,10.3448276 Z M27.9494453,12.2413793 L22.6759651,12.2413793 L22.6759651,11.7241379 L27.9494453,11.7241379 L27.9494453,12.2413793 Z" id="Shape"></path>
            </g>
        </g>
    </g>
</svg>