<?xml version="1.0" standalone="no"?><!DOCTYPE svg PUBLIC "-//W3C//DTD SVG 1.1//EN" "http://www.w3.org/Graphics/SVG/1.1/DTD/svg11.dtd"><svg t="1576051889683" class="icon" viewBox="0 0 1024 1024" version="1.1" xmlns="http://www.w3.org/2000/svg" p-id="2690" width="128" height="128" xmlns:xlink="http://www.w3.org/1999/xlink"><defs><style type="text/css"></style></defs><path d="M707.314 203.051c12.748 0 23.101-7.928 23.101-17.624V75.094c0-9.781-10.358-17.624-23.101-17.624-12.747 0-23.013 7.932-23.013 17.624v110.333c0 9.781 10.266 17.624 23.013 17.624z m-392.08 0c12.746 0 23.012-7.928 23.012-17.624V75.094c0-9.781-10.266-17.624-23.013-17.624-12.746 0-23.097 7.932-23.097 17.624v110.333c-0.004 9.781 10.35 17.624 23.097 17.624z m138.424 553.596c12.036 13.838 31.595 13.838 43.631 0L723.687 496.86c12.035-13.834 12.035-36.309-0.09-50.148-12.037-13.834-31.595-13.834-43.631 0L475.519 681.474 370.284 560.66c-12.127-13.838-31.682-13.838-43.717 0-12.036 13.836-12.036 36.305 0 50.14l127.09 145.847z m379.157-640.663h-76.558v61.068c0 23.268-21.594 42.13-48.233 42.13-26.55 0-48.148-18.861-48.148-42.13v-61.068h-297.29v61.068c0 23.268-21.595 42.13-48.145 42.13-26.557 0-48.15-18.861-48.15-42.13v-61.068h-76.557c-51.594 0-93.639 36.657-93.639 81.78v659.784c0 45.12 41.956 81.778 93.639 81.778h643.084c51.596 0 93.634-36.747 93.634-81.778V197.763c0-45.122-42.037-81.779-93.637-81.779z m32.659 729.05c0 14.54-14.606 26.438-32.656 26.438H189.735c-18.055 0-32.66-11.809-32.66-26.438V347.485h708.49l-0.091 497.55z" p-id="2691" fill="#333333"></path></svg>