<?xml version="1.0" encoding="UTF-8"?>
<svg width="32px" height="28px" viewBox="0 0 32 28" version="1.1" xmlns="http://www.w3.org/2000/svg" xmlns:xlink="http://www.w3.org/1999/xlink">
    <!-- Generator: Sketch 52.5 (67469) - http://www.bohemiancoding.com/sketch -->
    <title>不定线</title>
    <desc>Created with Sketch.</desc>
    <defs>
        <rect id="path-1" x="229" y="174" width="390" height="496" rx="8"></rect>
        <filter x="-3.8%" y="-1.8%" width="107.7%" height="106.0%" filterUnits="objectBoundingBox" id="filter-2">
            <feOffset dx="0" dy="6" in="SourceAlpha" result="shadowOffsetOuter1"></feOffset>
            <feGaussianBlur stdDeviation="4" in="shadowOffsetOuter1" result="shadowBlurOuter1"></feGaussianBlur>
            <feColorMatrix values="0 0 0 0 0   0 0 0 0 0   0 0 0 0 0  0 0 0 0.12 0" type="matrix" in="shadowBlurOuter1"></feColorMatrix>
        </filter>
    </defs>
    <g id="页面1" stroke="none" stroke-width="1" fill="none" fill-rule="evenodd">
        <g id="首页-copy" transform="translate(-257.000000, -323.000000)">
            <rect fill="#F2F2F2" x="0" y="0" width="1920" height="1080"></rect>
            <g id="矩形-copy-17">
                <use fill="black" fill-opacity="1" filter="url(#filter-2)" xlink:href="#path-1"></use>
                <use fill="#FFFFFF" fill-rule="evenodd" xlink:href="#path-1"></use>
            </g>
            <g id="不定线" transform="translate(259.000000, 323.000000)" fill="#333333" fill-rule="nonzero">
                <path d="M23.8,-3.3173464e-14 C21.4804041,-3.33154983e-14 19.6,1.88040405 19.6,4.2 C19.6,7.854 23.8,12.6 23.8,12.6 C23.8,12.6 28,7.854 28,4.2 C28,1.88040405 26.1195959,-3.3964017e-14 23.8,-3.3173464e-14 Z M23.8,6.3 C22.640202,6.3 21.7,5.35979797 21.7,4.2 C21.7,3.04020203 22.640202,2.1 23.8,2.1 C24.959798,2.1 25.9,3.04020203 25.9,4.2 C25.9,4.75695463 25.6787506,5.29109785 25.2849242,5.68492424 C24.8910978,6.07875064 24.3569546,6.3 23.8,6.3 Z M7,7 C3.13400675,7 4.73447626e-16,10.1340068 0,14 C0,20.09 7,28 7,28 C7,28 14,20.09 14,14 C14,10.1340068 10.8659932,7 7,7 Z M7,17.5 C5.06700338,17.5 3.5,15.9329966 3.5,14 C3.5,12.0670034 5.06700338,10.5 7,10.5 C8.93299662,10.5 10.5,12.0670034 10.5,14 C10.5,14.9282577 10.1312511,15.8184964 9.47487373,16.4748737 C8.81849641,17.1312511 7.92825771,17.5 7,17.5 Z M18.298,14.728 C18.0269447,15.4376318 17.9030996,16.1949918 17.934,16.954 L17.934,17.36 L19.334,17.36 L19.334,16.996 C19.3068783,16.4248859 19.3925078,15.854022 19.586,15.316 C19.6318675,15.206137 19.6832666,15.0986662 19.74,14.994 L18.508,14.322 C18.4333333,14.4433333 18.3633333,14.5786667 18.298,14.728 Z M19.516,13.006 L20.454,14.042 C21.0737498,13.5065511 21.8211749,13.1400717 22.624,12.978 L22.316,11.578 C21.2746706,11.8032625 20.3097841,12.2953546 19.516,13.006 Z M8.736,26.6 L8.862,28 C9.87,27.916 10.822,27.79 11.662,27.65 L11.424,26.25 C10.626,26.404 9.702,26.516 8.736,26.6 Z M16.59,24.416 L16.408,24.556 L17.248,25.676 L17.5,25.48 C18.250887,24.8606128 18.8174501,24.0470863 19.138,23.128 L17.808,22.666 C17.5734842,23.3516779 17.1515346,23.9579272 16.59,24.416 Z M12.796,25.998 L13.104,27.398 C14.0657585,27.1903321 15.0039146,26.8854314 15.904,26.488 L15.33,25.2 C14.5140185,25.5497303 13.6651358,25.817058 12.796,25.998 Z M18.018,18.788 C18.018,19.348 18.102,19.922 18.102,20.496 L18.102,21.462 L19.502,21.602 C19.5204917,21.2335652 19.5204917,20.8644348 19.502,20.496 C19.502,19.894 19.502,19.278 19.418,18.69 L18.018,18.788 Z" id="Shape"></path>
            </g>
        </g>
    </g>
</svg>