<?xml version="1.0" standalone="no"?><!DOCTYPE svg PUBLIC "-//W3C//DTD SVG 1.1//EN" "http://www.w3.org/Graphics/SVG/1.1/DTD/svg11.dtd"><svg t="1582097850064" class="icon" viewBox="0 0 1024 1024" version="1.1" xmlns="http://www.w3.org/2000/svg" p-id="6909" width="32" height="32" xmlns:xlink="http://www.w3.org/1999/xlink"><defs><style type="text/css"></style></defs><path d="M460.42074075 452.53214815h-182.04444445c-20.14625185 0-36.40888889-16.26263703-36.40888889-36.4088889s16.26263703-36.40888889 36.40888889-36.40888888h182.04444445c20.14625185 0 36.40888889 16.26263703 36.40888888 36.40888888s-16.26263703 36.40888889-36.40888888 36.4088889zM740.16237037 598.1677037H278.98311111c-20.14625185 0-36.40888889-16.26263703-36.40888889-36.40888888s16.26263703-36.40888889 36.40888889-36.4088889h461.17925926c20.14625185 0 36.40888889 16.26263703 36.40888888 36.4088889s-16.26263703 36.40888889-36.40888888 36.40888888zM740.16237037 743.80325925H278.98311111c-20.14625185 0-36.40888889-16.26263703-36.40888889-36.40888888s16.26263703-36.40888889 36.40888889-36.40888889h461.17925926c20.14625185 0 36.40888889 16.26263703 36.40888888 36.40888889s-16.26263703 36.40888889-36.40888888 36.40888888z" fill="#00A5C2" p-id="6910"></path><path d="M541.24847408 100.57955555l298.67425184 298.67425186c6.79632592 6.79632592 10.67994075 16.14127408 10.67994075 25.72894814V889.43881482c0 20.14625185-16.26263703 36.40888889-36.40888889 36.40888888H207.37896297c-20.14625185 0-36.40888889-16.26263703-36.40888889-36.40888888V136.98844445c0-20.14625185 16.26263703-36.40888889 36.40888889-36.4088889h333.86951111m30.21937777-72.81777777H170.97007408c-40.17114075 0-72.81777778 32.64663703-72.81777778 72.81777777v825.26814815c0 40.17114075 32.64663703 72.81777778 72.81777778 72.81777778h679.63259259c40.17114075 0 72.81777778-32.64663703 72.81777778-72.81777778V379.71437037L571.46785185 27.76177778z" fill="#00A5C2" p-id="6911"></path><path d="M644.28562963 203.61671111l103.27988148 103.27988148H644.28562963v-103.27988148M571.46785185 27.76177778v315.5437037c0 20.14625185 16.26263703 36.40888889 36.4088889 36.40888889h315.5437037L571.46785185 27.76177778z" fill="#00A5C2" p-id="6912"></path></svg>