<?xml version="1.0" encoding="UTF-8"?>
<svg width="242px" height="242px" viewBox="0 0 242 242" version="1.1" xmlns="http://www.w3.org/2000/svg" xmlns:xlink="http://www.w3.org/1999/xlink">
    <!-- Generator: Sketch 52.5 (67469) - http://www.bohemiancoding.com/sketch -->
    <title>创建训练</title>
    <desc>Created with Sketch.</desc>
    <g id="页面1" stroke="none" stroke-width="1" fill="none" fill-rule="evenodd">
        <g id="切图" transform="translate(-589.000000, -250.000000)">
            <rect id="Rectangle-Copy" fill="#F2F2F2" x="588" y="216" width="243" height="310"></rect>
            <g id="创建训练" transform="translate(590.000000, 251.000000)">
                <circle id="椭圆形" stroke="#8FD867" stroke-width="2.1808269" cx="119" cy="119" r="40"></circle>
                <circle id="椭圆形" stroke="#8FD867" opacity="0.5" cx="119" cy="119" r="83"></circle>
                <path d="M120,240 C186.27417,240 240,186.27417 240,120 C240,53.72583 186.27417,0 120,0 C53.72583,0 0,53.72583 0,120 C0,186.27417 53.72583,240 120,240 Z" id="椭圆形" stroke="#8FD867" opacity="0.300000012" stroke-dasharray="3.096774301411193"></path>
                <g id="Group-5" transform="translate(85.000000, 34.000000)">
                    <rect id="矩形" fill="#FFFFFF" x="0" y="0" width="69" height="26" rx="2.6"></rect>
                    <polygon id="路径-21" fill="#FFFFFF" points="32.2941176 25.9411765 34.3822046 28.6474529 36.5873619 25.9411765"></polygon>
                    <text id="创建训练" font-family="PingFangSC-Regular, PingFang SC" font-size="12" font-weight="normal" fill="#333333">
                        <tspan x="10.8235294" y="17.5882353">创建训练</tspan>
                    </text>
                </g>
                <g id="Group-5-Copy-2" transform="translate(119.000000, 189.500000) rotate(-180.000000) translate(-119.000000, -189.500000) translate(84.000000, 175.000000)" fill="#FFFFFF">
                    <rect id="矩形" x="0" y="0" width="70" height="26" rx="3"></rect>
                    <polygon id="路径-21" points="32 25 34.7305753 28.5389769 37.6142425 25"></polygon>
                </g>
                <g id="Group-5-Copy" transform="translate(163.000000, 102.000000)">
                    <rect id="矩形" fill="#FFFFFF" x="3" y="0" width="70" height="26" rx="3"></rect>
                    <polygon id="路径-21" fill="#FFFFFF" transform="translate(1.807121, 12.769488) rotate(-270.000000) translate(-1.807121, -12.769488) " points="-1 11 1.73057526 14.5389769 4.61424249 11"></polygon>
                    <text id="数据选择" font-family="PingFangSC-Regular, PingFang SC" font-size="12" font-weight="normal" fill="#333333">
                        <tspan x="14" y="18">数据选择</tspan>
                    </text>
                </g>
                <g id="Group-5-Copy-3" transform="translate(36.500000, 119.000000) rotate(-180.000000) translate(-36.500000, -119.000000) translate(0.000000, 106.000000)" fill="#FFFFFF">
                    <rect id="矩形" x="3" y="0" width="70" height="26" rx="3"></rect>
                    <polygon id="路径-21" transform="translate(1.769488, 14.807121) rotate(-270.000000) translate(-1.769488, -14.807121) " points="-1.03763281 13.0376328 1.69294245 16.5766097 4.57660968 13.0376328"></polygon>
                </g>
                <text id="训练模型" font-family="PingFangSC-Regular, PingFang SC" font-size="12" font-weight="normal" fill="#333333">
                    <tspan x="11" y="124">训练模型</tspan>
                </text>
                <text id="参数配置" font-family="PingFangSC-Regular, PingFang SC" font-size="12" font-weight="normal" fill="#333333">
                    <tspan x="95" y="196">参数配置</tspan>
                </text>
                <circle id="Oval" fill-opacity="0.2" fill="#8FD867" cx="216" cy="205" r="10"></circle>
                <circle id="Oval-Copy" fill-opacity="0.4" fill="#8FD867" cx="213" cy="195" r="13"></circle>
                <circle id="Oval-Copy-2" fill-opacity="0.6" fill="#8FD867" cx="31" cy="37" r="10"></circle>
                <circle id="Oval-Copy-3" fill-opacity="0.8" fill="#8FD867" cx="36" cy="27" r="5"></circle>
                <path d="" id="Path-2" stroke="#979797"></path>
                <path d="M195,96.9096104 C201.056456,99.6151355 199.085863,100.652579 201,94 L195,96.9096104 Z" id="Path" stroke="#8FD867" stroke-width="1.68126458" fill="#8FD867" stroke-linecap="round" stroke-linejoin="round"></path>
                <path d="M157.40168,189.783205 C165.476954,193.029836 162.849497,194.274768 165.40168,186.291673 L157.40168,189.783205 Z" id="Path-Copy" stroke="#8FD867" stroke-width="2.0175175" fill="#8FD867" stroke-linecap="round" stroke-linejoin="round" transform="translate(161.401680, 189.291673) rotate(84.000000) translate(-161.401680, -189.291673) "></path>
                <path d="M35.246246,139.82874 C43.3215205,143.07537 40.6940639,144.320302 43.246246,136.337207 L35.246246,139.82874 Z" id="Path-Copy-2" stroke="#8FD867" stroke-width="2.07986653" fill="#8FD867" stroke-linecap="round" stroke-linejoin="round" transform="translate(39.246246, 139.337207) rotate(185.000000) translate(-39.246246, -139.337207) "></path>
                <path d="M74.4651158,47.8273251 C82.5403904,51.0739553 79.9129337,52.3188877 82.4651158,44.3357926 L74.4651158,47.8273251 Z" id="Path-Copy-3" stroke="#8FD867" stroke-width="2.07986653" fill="#8FD867" stroke-linecap="round" stroke-linejoin="round" transform="translate(78.465116, 47.335793) rotate(263.000000) translate(-78.465116, -47.335793) "></path>
                <path d="M134,118.595419 C134.000342,116.685583 133.608178,114.797641 132.849568,113.056117 C132.834232,113.078718 132.812359,113.096639 132.797023,113.119417 C133.341695,112.197252 133.665422,111.107878 133.665422,109.932604 C133.665422,106.655566 131.217903,104 128.197346,104 C126.751553,104 125.443615,104.61922 124.468076,105.616029 C124.479097,105.602389 124.487769,105.58204 124.500927,105.5684 C123.324308,105.216679 122.105824,105.036978 120.880975,105.035079 C115.654221,105.034417 110.925702,108.239504 108.84463,113.193884 C109.056902,113.166825 109.26251,113.123919 109.481276,113.123919 C109.81799,113.123919 110.14176,113.171327 110.458951,113.241336 C110.132575,113.173888 109.800817,113.138398 109.468076,113.135087 C106.447519,113.135087 104,115.790698 104,119.067868 C104,122.283814 106.362251,124.889721 109.304034,124.986833 C111.584691,129.402727 116.03485,132.160702 120.878797,132.160349 C121.840665,132.157083 122.799159,132.045713 123.737489,131.828094 C123.704809,131.780686 123.687294,131.724141 123.656579,131.67894 C124.656126,133.080086 126.204702,134 127.96773,134 C130.988286,134 133.435805,131.342182 133.435805,128.06744 C133.435805,126.862679 133.101057,125.746203 132.532334,124.812826 C133.46635,122.948367 134,120.835259 134,118.595419 Z M128.311547,106.068966 C130.311146,106.069484 131.931553,107.691263 131.931034,109.690928 C131.93028,111.690451 130.30879,113.311099 128.309143,113.310345 C126.309496,113.309779 124.688948,111.688047 124.689655,109.688383 C124.690409,107.688671 126.3119,106.068212 128.311547,106.068966 Z M106.068966,118.998822 C106.06972,116.999162 107.69121,115.378557 109.690857,115.379311 C111.690456,115.380065 113.311052,117.001566 113.310345,119.001225 C113.309591,121.000838 111.6881,122.621255 109.688453,122.62069 C107.688807,122.619983 106.068447,120.998434 106.068966,118.998822 Z M122.697897,128.014107 C122.697897,128.592257 122.795499,129.138271 122.934193,129.668508 C122.333497,129.777889 121.719584,129.862069 121.09059,129.862069 C117.339714,129.856513 113.859744,127.810813 111.896511,124.457433 C113.837716,123.547141 115.197627,121.426239 115.197627,118.957283 C115.197627,116.219697 113.518856,113.939412 111.241379,113.231749 C111.321656,113.256772 111.40638,113.272728 111.484327,113.30224 C113.28688,109.636362 116.889489,107.103448 121.09059,107.103448 C121.877934,107.103448 122.632701,107.217362 123.372388,107.388034 C123.086104,108.116187 122.923433,108.917231 122.923433,109.759254 C122.923433,113.056588 125.350491,115.732706 128.345795,115.732706 C129.43247,115.732706 130.438741,115.37314 131.286833,114.765479 C131.67504,115.935111 131.931034,117.170923 131.931034,118.479314 C131.931034,120.083669 131.590485,121.601444 131.017917,122.982726 C130.162243,122.37262 129.152498,122.044656 128.118098,122.0407 C125.124954,122.0407 122.697897,124.712284 122.697897,128.014107 Z M128.309184,131.931034 C127.015562,131.930657 125.820579,131.240118 125.174216,130.119664 C124.527664,128.999258 124.528229,127.618886 125.175347,126.498999 C125.822417,125.378922 127.017919,124.689137 128.311588,124.689655 C130.311191,124.690221 131.9316,126.311754 131.931034,128.311452 C131.930327,130.311151 130.308787,131.931741 128.309184,131.931034 Z" id="xunlian" fill="#999999"></path>
            </g>
        </g>
    </g>
</svg>