<?xml version="1.0" encoding="UTF-8"?>
<svg width="243px" height="310px" viewBox="0 0 243 310" version="1.1" xmlns="http://www.w3.org/2000/svg" xmlns:xlink="http://www.w3.org/1999/xlink">
    <!-- Generator: Sketch 52.5 (67469) - http://www.bohemiancoding.com/sketch -->
    <title>分组 5</title>
    <desc>Created with Sketch.</desc>
    <g id="页面1" stroke="none" stroke-width="1" fill="none" fill-rule="evenodd">
        <g id="切图" transform="translate(-1223.000000, -216.000000)">
            <g id="分组-5" transform="translate(1223.000000, 216.000000)">
                <rect id="Rectangle-Copy-3" fill="#F2F2F2" x="0" y="0" width="243" height="310"></rect>
                <g id="模型选择" transform="translate(2.000000, 35.000000)">
                    <circle id="椭圆形-copy-16" stroke="#FFB539" stroke-width="2.1808269" cx="119" cy="119" r="40"></circle>
                    <circle id="椭圆形-copy-17" stroke="#FFB539" opacity="0.5" cx="119" cy="119" r="83"></circle>
                    <path d="M120,240 C186.27417,240 240,186.27417 240,120 C240,53.72583 186.27417,0 120,0 C53.72583,0 0,53.72583 0,120 C0,186.27417 53.72583,240 120,240 Z" id="椭圆形-copy-18" stroke="#FFB539" opacity="0.300000012" stroke-dasharray="3.096774301411193"></path>
                    <g id="Group-5-Copy-8" transform="translate(85.000000, 34.000000)">
                        <rect id="矩形" fill="#FFFFFF" x="0" y="0" width="69" height="26" rx="2.6"></rect>
                        <polygon id="路径-21" fill="#FFFFFF" points="32.2941176 25.9411765 34.3822046 28.6474529 36.5873619 25.9411765"></polygon>
                        <text id="1.模型部署" font-family="PingFangSC-Regular, PingFang SC" font-size="12" font-weight="normal" fill="#333333">
                            <tspan x="6.83352941" y="17.5882353">1.模型部署</tspan>
                        </text>
                    </g>
                    <g id="Group-5-Copy-9" transform="translate(186.000000, 173.500000) rotate(-180.000000) translate(-186.000000, -173.500000) translate(151.000000, 159.000000)" fill="#FFFFFF">
                        <rect id="矩形" x="0" y="0" width="70" height="26" rx="3"></rect>
                        <polygon id="路径-21" points="60 25 62.7305753 28.5389769 65.6142425 25"></polygon>
                    </g>
                    <g id="Group-5-Copy-10" transform="translate(163.000000, 93.000000)">
                        <rect id="矩形" fill="#FFFFFF" x="3" y="0" width="74" height="26" rx="3"></rect>
                        <polygon id="路径-21" fill="#FFFFFF" transform="translate(1.807121, 12.769488) rotate(-270.000000) translate(-1.807121, -12.769488) " points="-1 11 1.73057526 14.5389769 4.61424249 11"></polygon>
                        <text id="2.选择数据集" font-family="PingFangSC-Regular, PingFang SC" font-size="12" font-weight="normal" fill="#333333">
                            <tspan x="4.816" y="18">2.选择数据集</tspan>
                        </text>
                    </g>
                    <g id="Group-5-Copy-11" transform="translate(53.000000, 170.500000) rotate(-180.000000) translate(-53.000000, -170.500000) translate(18.000000, 156.000000)" fill="#FFFFFF">
                        <rect id="矩形" x="0" y="0" width="70" height="26" rx="3"></rect>
                        <polygon id="路径-21" points="4 25 6.73057526 28.5389769 9.61424249 25"></polygon>
                    </g>
                    <g id="Group-5-Copy-12" transform="translate(39.500000, 106.000000) rotate(-180.000000) translate(-39.500000, -106.000000) translate(3.000000, 93.000000)" fill="#FFFFFF">
                        <rect id="矩形" x="3" y="0" width="70" height="26" rx="3"></rect>
                        <polygon id="路径-21" transform="translate(1.769488, 14.807121) rotate(-270.000000) translate(-1.769488, -14.807121) " points="-1.03763281 13.0376328 1.69294245 16.5766097 4.57660968 13.0376328"></polygon>
                    </g>
                    <text id="4.实例选择" font-family="PingFangSC-Regular, PingFang SC" font-size="12" font-weight="normal" fill="#333333">
                        <tspan x="23.816" y="177">4.实例选择</tspan>
                    </text>
                    <text id="5.实例选择" font-family="PingFangSC-Regular, PingFang SC" font-size="12" font-weight="normal" fill="#333333">
                        <tspan x="8.816" y="111">5.实例选择</tspan>
                    </text>
                    <text id="3.模型选择" font-family="PingFangSC-Regular, PingFang SC" font-size="12" font-weight="normal" fill="#333333">
                        <tspan x="156.816" y="180">3.模型选择</tspan>
                    </text>
                    <circle id="Oval-Copy-8" fill-opacity="0.2" fill="#FFB539" cx="48" cy="34" r="10"></circle>
                    <circle id="Oval-Copy-9" fill-opacity="0.4" fill="#FFB539" cx="45" cy="24" r="13"></circle>
                    <circle id="Oval-Copy-10" fill-opacity="0.6" fill="#FFB539" cx="211" cy="219" r="10"></circle>
                    <circle id="Oval-Copy-11" fill-opacity="0.8" fill="#FFB539" cx="216" cy="209" r="5"></circle>
                    <path d="" id="Path-2-Copy-2" stroke="#979797"></path>
                    <path d="M192,86.9096104 C198.056456,89.6151355 196.085863,90.6525792 198,84 L192,86.9096104 Z" id="Path-Copy-8" stroke="#FFB539" stroke-width="1.68126458" fill="#FFB539" stroke-linecap="round" stroke-linejoin="round"></path>
                    <path d="M188.888365,155.478548 C196.963639,158.725178 194.336183,159.97011 196.888365,151.987015 L188.888365,155.478548 Z" id="Path-Copy-9" stroke="#FFB539" stroke-width="2.0175175" fill="#FFB539" stroke-linecap="round" stroke-linejoin="round" transform="translate(192.888365, 154.987015) rotate(49.000000) translate(-192.888365, -154.987015) "></path>
                    <path d="M73.9737834,191.123187 C82.0490579,194.369817 79.4216013,195.614749 81.9737834,187.631654 L73.9737834,191.123187 Z" id="Path-Copy-12" stroke="#FFB539" stroke-width="2.0175175" fill="#FFB539" stroke-linecap="round" stroke-linejoin="round" transform="translate(77.973783, 190.631654) rotate(149.000000) translate(-77.973783, -190.631654) "></path>
                    <path d="M33.7023341,126.529934 C41.7776087,129.776564 39.150152,131.021496 41.7023341,123.038401 L33.7023341,126.529934 Z" id="Path-Copy-10" stroke="#FFB539" stroke-width="2.07986653" fill="#FFB539" stroke-linecap="round" stroke-linejoin="round" transform="translate(37.702334, 126.038401) rotate(197.000000) translate(-37.702334, -126.038401) "></path>
                    <path d="M75.4651158,47.8273251 C83.5403904,51.0739553 80.9129337,52.3188877 83.4651158,44.3357926 L75.4651158,47.8273251 Z" id="Path-Copy-11" stroke="#FFB539" stroke-width="2.07986653" fill="#FFB539" stroke-linecap="round" stroke-linejoin="round" transform="translate(79.465116, 47.335793) rotate(263.000000) translate(-79.465116, -47.335793) "></path>
                    <path d="M119.117805,103.619048 C118.372103,104.070258 118.087236,104.686412 118.164413,105.654471 C118.203064,106.200303 118.212757,106.751027 118.20789,107.461885 C118.20789,107.655936 118.203064,107.81126 118.198237,108.165486 C118.190978,108.684573 118.186151,108.917518 118.186151,109.206148 C118.186151,111.326614 116.820104,112.685222 114.6914,112.685222 C113.454916,112.685554 112.218391,112.683107 110.981906,112.677924 C109.48547,112.675478 108.372898,112.677924 107.277197,112.685222 C106.113848,112.685222 105.621622,113.177606 105.621622,114.334865 L105.621622,122.146755 C105.621622,123.384039 106.092274,123.857143 107.318281,123.857143 L115.022054,123.857143 C116.335096,123.857143 116.776751,123.420486 116.776751,122.124904 L116.776751,114.490189 C116.803191,112.687627 118.183759,111.314465 120.00594,111.287763 L123.918173,111.287763 C125.470172,111.287763 125.86109,110.904387 125.86109,109.412473 C125.86109,109.106676 125.86109,108.861624 125.851397,108.310942 C125.829659,106.993632 125.834485,106.404056 125.882829,105.659364 C125.94792,104.679115 125.665611,104.065407 124.93183,103.621453 L119.115371,103.621453 L119.117805,103.619048 Z M127.501692,105.469393 C127.45485,106.154694 127.452367,106.710998 127.472105,107.969212 C127.479512,108.518538 127.484436,108.766737 127.484436,109.074883 C127.484436,111.309813 126.440327,112.298282 124.086168,112.298282 L120.099497,112.298282 C119.013471,112.310239 118.22798,113.062343 118.213208,114.084316 L118.213208,121.586425 C118.213208,123.625596 117.119942,124.666667 115.004621,124.666667 L107.147057,124.666667 C105.112962,124.666667 104,123.58495 104,121.603157 L104,113.921897 C104,112.018864 105.137624,110.922906 107.097733,110.922906 C108.78201,110.909684 110.466414,110.908092 112.150692,110.918131 L114.669743,110.922906 C116.063544,110.922906 116.819575,110.19696 116.819575,108.869412 C116.819575,108.57816 116.822058,108.344163 116.83178,107.823688 L116.841628,107.140795 C116.850845,106.586532 116.836872,106.032104 116.799879,105.478942 C116.671811,103.94127 117.289759,102.795117 118.666262,102.081128 L118.821475,102 L125.595663,102 L125.733579,102.131363 C127.03134,102.842781 127.605097,103.957879 127.501692,105.469393 Z M113.622215,134.364709 C115.161896,134.386367 116.699308,134.386367 118.236596,134.364709 C119.284031,134.350133 119.783536,133.85098 119.798014,132.809068 C119.810099,132.072596 119.810099,131.481388 119.80284,130.148822 L119.798014,128.806565 C119.798014,126.674459 121.161609,125.312782 123.295004,125.312782 C124.549995,125.312285 125.804987,125.314728 127.059978,125.32007 C128.573054,125.322471 129.697704,125.32007 130.800575,125.312782 C131.855269,125.295804 132.362199,124.791764 132.362199,123.762027 C132.383771,121.048403 132.383771,118.356602 132.362199,115.647823 C132.34768,114.673866 131.833532,114.169826 130.841657,114.152848 C129.954386,114.140384 129.067073,114.139597 128.179761,114.150405 L126.83551,114.152848 C124.887893,114.152848 124.011841,114.157693 122.920891,114.174671 L122.901711,114.174671 C121.612896,114.174671 121.166435,114.627777 121.166435,115.945767 L121.166435,123.456796 C121.166435,125.34417 119.807665,126.701003 117.898698,126.727671 L116.45071,126.720383 C115.014767,126.715538 114.377536,126.715538 113.583525,126.725228 C112.67365,126.739804 112.13793,127.267944 112.123452,128.15726 C112.102993,129.728761 112.102993,131.300552 112.123452,132.872177 C112.140364,133.85098 112.639992,134.350133 113.622215,134.364709 Z M128.292424,113.336624 L128.976951,113.334219 C129.809232,113.331854 130.429624,113.334219 131.037895,113.341394 C132.810821,113.367527 133.958222,114.457762 133.985197,116.170372 C134.004934,118.846752 134.004934,121.504053 133.985197,124.178069 C133.985197,125.945594 132.835314,127.04541 130.991014,127.071502 C129.283864,127.084752 127.576714,127.086342 125.869522,127.076272 C124.596503,127.071502 124.025265,127.071502 123.316077,127.071502 C121.919965,127.071502 121.166548,127.799141 121.166548,129.139736 L121.169031,130.451631 C121.176438,131.775511 121.176438,132.362376 121.166548,133.099392 C121.139446,134.869322 120.009258,135.959557 118.174848,135.98569 C116.594116,136.00477 115.010733,136.00477 113.427518,135.98569 C111.659516,135.959557 110.529369,134.869322 110.502394,133.161483 C110.481184,131.60147 110.481184,130.041254 110.502394,128.481363 C110.529369,126.856855 111.69899,125.745257 113.385603,125.719002 C114.210477,125.707179 114.865588,125.707179 116.34048,125.714354 L117.800559,125.719002 C118.97018,125.704814 119.728478,124.974811 119.728478,123.872753 L119.728478,116.478053 C119.728478,114.426696 120.81692,113.362716 122.904966,113.362716 L122.912373,113.362716 C124.035112,113.346164 124.93136,113.341394 126.928337,113.341394 L128.292424,113.336624 Z" id="moxing" stroke="#999999" stroke-width="0.5" fill="#999999" transform="translate(119.000000, 119.000000) scale(1, -1) translate(-119.000000, -119.000000) "></path>
                </g>
                <text id="模型选择操作步骤" font-family="SourceHanSerifSC-Bold, Source Han Serif SC" font-size="15" font-weight="bold" fill="#333333">
                    <tspan x="62" y="41">模型选择操作步骤</tspan>
                </text>
            </g>
        </g>
    </g>
</svg>