<?xml version="1.0" encoding="UTF-8"?>
<svg width="40px" height="40px" viewBox="0 0 40 40" version="1.1" xmlns="http://www.w3.org/2000/svg" xmlns:xlink="http://www.w3.org/1999/xlink">
    <!-- Generator: Sketch 52.5 (67469) - http://www.bohemiancoding.com/sketch -->
    <title>计算机资源</title>
    <desc>Created with Sketch.</desc>
    <g id="页面1" stroke="none" stroke-width="1" fill="none" fill-rule="evenodd">
        <g id="首页-copy-2" transform="translate(-1605.000000, -618.000000)">
            <rect fill="#F2F2F2" x="0" y="0" width="1920" height="1530"></rect>
            <rect id="矩形-copy-22" fill="#FFFFFF" x="131" y="506" width="1723" height="220" rx="6"></rect>
            <g id="计算机资源" transform="translate(1605.000000, 618.000000)" fill="#1E88ED" fill-rule="nonzero">
                <path d="M2.27847027,24.597565 L2.27847027,27.0613649 C2.27847027,28.4199592 3.29778591,29.5197736 4.55694053,29.5197736 L35.4062287,29.5197736 C36.6653833,29.5197736 37.6896956,28.414568 37.6896956,27.0613649 L37.6896956,24.597565 L2.27847027,24.597565 Z M35.4062287,31.9781823 L25.1131394,31.9781823 L25.1131394,36.8976953 L27.394108,36.8976953 C27.8109309,36.8814406 28.2023921,37.1133334 28.4134236,37.501515 C28.9607662,37.5209159 29.4182517,37.9569086 29.5036896,38.54056 C29.5891275,39.1242114 29.2784509,39.6911137 28.7632943,39.8915848 C28.2481377,40.0920559 27.6736147,39.8696255 27.394108,39.3614952 L13.7132931,39.3614952 C13.0841109,39.3614952 12.5740579,38.8111617 12.5740579,38.1322909 C12.5740579,37.4534201 13.0841109,36.9030866 13.7132931,36.9030866 L15.9917633,36.9030866 L15.9917633,31.9835735 L4.56193716,31.9835735 C2.04244884,31.9835735 2.54630349e-15,29.7798257 0,27.0613649 L0,4.91681737 C0,2.19962883 2.04362792,0 4.56193716,0 L35.4112254,0 C37.9295346,0 39.9681659,2.19962883 39.9731626,4.91681737 L39.9731626,27.0559737 C39.9676577,29.7740746 37.9253881,31.9752182 35.4062287,31.9781823 Z" id="Shape"></path>
            </g>
        </g>
    </g>
</svg>