<?xml version="1.0" standalone="no"?><!DOCTYPE svg PUBLIC "-//W3C//DTD SVG 1.1//EN" "http://www.w3.org/Graphics/SVG/1.1/DTD/svg11.dtd"><svg t="1582163798768" class="icon" viewBox="0 0 1024 1024" version="1.1" xmlns="http://www.w3.org/2000/svg" p-id="3628" width="32" height="32" xmlns:xlink="http://www.w3.org/1999/xlink"><defs><style type="text/css"></style></defs><path d="M512 30.117647c265.035294 0 481.882353 216.847059 481.882353 481.882353s-216.847059 481.882353-481.882353 481.882353-481.882353-216.847059-481.882353-481.882353 216.847059-481.882353 481.882353-481.882353z" fill="#FFFFFF" p-id="3629"></path><path d="M512 1024c-283.105882 0-512-228.894118-512-512s228.894118-512 512-512 512 228.894118 512 512-228.894118 512-512 512z m0-963.764706c-246.964706 0-451.764706 204.8-451.764706 451.764706s204.8 451.764706 451.764706 451.764706c252.988235 0 451.764706-204.8 451.764706-451.764706s-198.776471-451.764706-451.764706-451.764706z" fill="#DFDFDF" p-id="3630" data-spm-anchor-id="a313x.7781069.0.i8" class="selected"></path></svg>