<?xml version="1.0" encoding="UTF-8"?>
<svg width="90px" height="90px" viewBox="0 0 90 90" version="1.1" xmlns="http://www.w3.org/2000/svg" xmlns:xlink="http://www.w3.org/1999/xlink">
    <!-- Generator: Sketch 52.5 (67469) - http://www.bohemiancoding.com/sketch -->
    <title>供电</title>
    <desc>Created with Sketch.</desc>
    <defs>
        <linearGradient x1="83.1568426%" y1="8.71862006%" x2="-8.80980863%" y2="92.221584%" id="linearGradient-1">
            <stop stop-color="#54E4F7" offset="0%"></stop>
            <stop stop-color="#54A8F7" offset="100%"></stop>
        </linearGradient>
    </defs>
    <g id="页面1" stroke="none" stroke-width="1" fill="none" fill-rule="evenodd">
        <g id="切图" transform="translate(-1113.000000, -848.000000)">
            <g id="供电" transform="translate(1113.000000, 848.000000)">
                <circle id="椭圆形-copy-10" fill="url(#linearGradient-1)" cx="45" cy="45" r="45"></circle>
                <g id="w0103006UPS供电配电箱-Copy" transform="translate(20.000000, 21.000000)" fill="#FFFFFF" fill-rule="nonzero">
                    <path d="M26.4636076,0 L0,0 L8.67361738e-17,43.7387821 C8.67361738e-17,46.9779647 2.03718354,49 5.30063291,49 L44.0664557,49 C47.3299051,49 50,46.9779647 50,43.7387821 L50,0 L26.4636076,0 Z M5.30063291,46.4871795 C3.77768987,46.4871795 2.53164557,45.2504006 2.53164557,43.7387821 L2.53164557,2.51282051 L22.903481,2.51282051 L22.903481,46.4871795 L5.30063291,46.4871795 Z M46.835443,43.7387821 C46.835443,45.2504006 45.5119746,46.4871795 43.8944021,46.4871795 L25.1977848,46.4871795 L25.1977848,2.51282051 L46.835443,2.51282051 L46.835443,43.7387821 Z" id="形状"></path>
                    <path d="M30.53044,27.4447115 L31.2179777,27.4447115 C31.8230108,27.4447115 32.318038,26.7379808 32.318038,25.8741987 L32.318038,19.9847756 C32.318038,19.1209936 31.8230108,18.4142628 31.2179777,18.4142628 L30.53044,18.4142628 C29.9254069,18.4142628 29.4303797,19.1209936 29.4303797,19.9847756 L29.4303797,25.8741987 C29.4303797,26.7379808 29.9254069,27.4447115 30.53044,27.4447115 Z M9.59256329,36.4555288 C9.59256329,37.3193109 9.23655063,37.7512019 8.5443038,37.7512019 C7.83227848,37.7512019 7.47626582,37.2996795 7.47626582,36.416266 L7.47626582,33.2948718 L6.32911392,33.2948718 L6.32911392,36.3966346 C6.32911392,37.947516 7.04113924,38.7327724 8.48496835,38.7327724 C9.96835443,38.7327724 10.7199367,37.9278846 10.7199367,36.3377404 L10.7199367,33.2948718 L9.57278481,33.2948718 L9.57278481,36.4555288 L9.59256329,36.4555288 Z M13.7658228,33.2948718 L11.9066456,33.2948718 L11.9066456,38.6346154 L13.0537975,38.6346154 L13.0537975,36.7696314 L13.6471519,36.7696314 C14.2602848,36.7892628 14.7547468,36.6322115 15.1700949,36.2984776 C15.585443,35.9647436 15.7832278,35.5328526 15.7832278,34.9831731 C15.7832278,33.8445513 15.1107595,33.2948718 13.7658228,33.2948718 Z M13.568038,35.9058494 L13.0735759,35.9058494 L13.0735759,34.1782853 L13.5878165,34.1782853 C14.2602848,34.1782853 14.596519,34.453125 14.596519,35.0224359 C14.5767405,35.6113782 14.2405063,35.9058494 13.568038,35.9058494 Z M19.6795886,36.2395833 C19.4818038,35.984375 19.1060127,35.7487981 18.5719937,35.5132212 C18.1170886,35.3169071 17.8204114,35.1598558 17.721519,35.0420673 C17.6226266,34.9242788 17.5435127,34.8064904 17.5435127,34.6690705 C17.5435127,34.4923878 17.6226266,34.3549679 17.8006329,34.2568109 C17.9786392,34.1586538 18.1962025,34.0997596 18.4731013,34.0997596 C18.9477848,34.0997596 19.3829114,34.2175481 19.7389241,34.4727564 L19.7389241,33.4126603 C19.3829114,33.2752404 18.9477848,33.2163462 18.4137658,33.2163462 C17.7808544,33.2163462 17.2863924,33.353766 16.8908228,33.6286058 C16.4952532,33.9034455 16.3172468,34.2960737 16.3172468,34.786859 C16.3172468,35.4543269 16.7325949,35.984375 17.5830696,36.3377404 C18.1170886,36.5536859 18.4533228,36.7303686 18.5719937,36.8677885 C18.6906646,37.0052083 18.75,37.1426282 18.75,37.2800481 C18.75,37.4567308 18.6708861,37.5941506 18.5126582,37.6923077 C18.3544304,37.7904647 18.1170886,37.849359 17.8006329,37.849359 C17.2468354,37.849359 16.7523734,37.6726763 16.3172468,37.3193109 L16.3172468,38.4579327 C16.7128165,38.6542468 17.2072785,38.7524038 17.8401899,38.7524038 C18.5126582,38.7524038 19.0268987,38.614984 19.4026899,38.3401442 C19.778481,38.0653045 19.9564873,37.6726763 19.9564873,37.1622596 C19.9762658,36.8088942 19.8773734,36.4947917 19.6795886,36.2395833 Z M18.3544304,18.4927885 L12.9153481,18.4927885 L15.130538,11.5432692 L7.47626582,20.5933494 L12.7768987,20.5933494 L11.3132911,27.4447115 L18.3544304,18.4927885 Z" id="形状"></path>
                </g>
            </g>
        </g>
    </g>
</svg>