<?xml version="1.0" encoding="UTF-8"?>
<svg width="90px" height="90px" viewBox="0 0 90 90" version="1.1" xmlns="http://www.w3.org/2000/svg" xmlns:xlink="http://www.w3.org/1999/xlink">
    <!-- Generator: Sketch 52.5 (67469) - http://www.bohemiancoding.com/sketch -->
    <title>储能</title>
    <desc>Created with Sketch.</desc>
    <defs>
        <linearGradient x1="83.1568426%" y1="8.71862006%" x2="-8.80980863%" y2="92.221584%" id="linearGradient-1">
            <stop stop-color="#67D894" offset="0%"></stop>
            <stop stop-color="#8FD867" offset="100%"></stop>
        </linearGradient>
    </defs>
    <g id="页面1" stroke="none" stroke-width="1" fill="none" fill-rule="evenodd">
        <g id="切图" transform="translate(-931.000000, -848.000000)">
            <g id="储能" transform="translate(931.000000, 848.000000)">
                <circle id="椭圆形-copy-9" fill="url(#linearGradient-1)" cx="45" cy="45" r="45"></circle>
                <g id="储能机-copy" transform="translate(25.000000, 21.000000)" fill="#FFFFFF">
                    <path d="M12.390774,44.7280591 C12.0880048,47.3958845 11.7747395,47.8743835 10.3422374,47.9320339 C7.14681092,48.0608529 7.11088231,48.0314313 6.48011308,44.6648424 C5.84530692,44.6648424 5.18345338,44.6733905 4.52159985,44.663252 C1.73430631,44.6205111 0.018614,42.9144546 0.0174029231,40.154786 C0.0121549231,28.2644749 0.0113475385,16.3743626 0.0180084615,4.48405148 C0.0194213846,1.75281052 1.78496969,0.0272721537 4.57044662,0.0256817958 C15.1970411,0.020115543 25.8238374,0.0197179535 36.4506337,0.0260793852 C39.2260183,0.0276697432 40.9859149,1.76334664 40.9873278,4.50035265 C40.9929795,16.3906638 40.9929795,28.2807761 40.9873278,40.1710872 C40.9859149,42.9200209 39.2591211,44.6242882 36.4673869,44.6636496 C35.7326669,44.6739869 34.9977451,44.6652399 34.4995888,44.6652399 C34.0930706,45.7343581 33.9881106,46.9328916 33.3270645,47.4805711 C32.7106263,47.9912748 31.5056048,47.8890943 30.5557168,47.9149376 C29.0283469,47.9564857 28.8602091,47.6708177 28.3293537,44.7284567 C23.0432048,44.7280591 17.7457525,44.7280591 12.390774,44.7280591 Z M38.5675962,22.3879035 C38.5675962,16.4904587 38.5694128,10.5930139 38.5663851,4.69576788 C38.5655777,3.02191615 37.9505525,2.41042352 36.2629168,2.41002593 C25.7671186,2.4076404 15.2715223,2.40783919 4.77572415,2.40982714 C3.070326,2.41022473 2.43874938,3.0161511 2.43834569,4.66256916 C2.43592354,16.4574588 2.43572169,28.2521496 2.43895123,40.0470393 C2.43935492,41.6481321 3.06830754,42.2697633 4.69801338,42.2771187 C7.01702385,42.287456 9.33623615,42.279703 11.6552466,42.279703 C19.861302,42.279703 28.0673574,42.2834801 36.2734128,42.2765223 C37.9570115,42.2751308 38.5657795,41.6529032 38.5665869,39.9806418 C38.5692109,34.1163957 38.5675962,28.2521496 38.5675962,22.3879035 Z M8.29511369,46.2846219 L10.6280515,46.2846219 L10.6280515,44.7348181 L8.29511369,44.7348181 L8.29511369,46.2846219 Z M32.4785032,44.7376012 L30.1310325,44.7376012 L30.1310325,46.2707063 L32.4785032,46.2707063 L32.4785032,44.7376012 Z" id="形状" fill-rule="nonzero"></path>
                    <path d="M20.5931962,39.7973531 C16.2567334,39.7973531 11.9200688,39.8005338 7.583606,39.7959615 C5.84671985,39.7939736 5.12350508,39.0966016 5.11946815,37.3907439 C5.10977954,33.3184337 5.11058692,29.2459246 5.11886262,25.1736143 C5.12249585,23.4417145 5.87518015,22.7133305 7.65425215,22.7125354 C16.2936712,22.7083607 24.9330903,22.7081619 33.5725094,22.7127342 C35.3378558,22.7137281 36.0844848,23.4510578 36.0877143,25.1940901 C36.0951826,29.2332017 36.0945771,33.2725121 36.0879162,37.3116236 C36.0848885,39.1315895 35.3877118,39.7953651 33.5018632,39.7965579 C29.1991088,39.7991422 24.8963543,39.7975519 20.5931962,39.7973531 Z M34.0080934,37.7783937 L34.0080934,24.7523682 L7.21281462,24.7523682 L7.21281462,37.7783937 L34.0080934,37.7783937 Z M18.4816835,15.4078226 C17.5354288,15.2139977 16.7480269,15.0670884 15.9678915,14.8895647 C14.8452232,14.6343122 14.6389365,14.0148678 15.4465229,13.2318153 C17.7441377,11.0041214 20.0484134,8.78278898 22.3930583,6.60379981 C22.663734,6.35212567 23.2048835,6.38293886 23.6206866,6.2829451 C23.7006177,6.66820931 23.9214374,7.08766622 23.8352491,7.43257509 C23.4834312,8.84103584 23.0375531,10.2266352 22.5920786,11.7368789 C23.4230792,11.9269266 24.2292528,12.0980889 25.0283617,12.2972812 C26.1552688,12.5779794 26.3197734,13.1286408 25.4982595,13.9590065 C23.3419371,16.1383932 21.1846054,18.3173824 18.9820602,20.4510464 C18.690998,20.7329373 18.1355174,20.7502325 17.7025574,20.8899852 C17.6159654,20.4415042 17.38687,19.9657884 17.4688195,19.5495122 C17.7360638,18.1941297 18.1169475,16.8604157 18.4816835,15.4078226 Z M23.4753574,13.5966037 C22.9438965,13.4828931 22.495798,13.3886644 22.0489106,13.2910561 C20.7393328,13.0051893 20.6057106,12.7839308 20.96863,11.5281444 C21.120822,11.0019347 21.2645365,10.4733395 21.4861635,9.68074483 L17.7691666,13.6081338 C18.1593352,13.6961998 18.6720245,13.8538441 19.1966226,13.9212355 C20.1220872,14.0401147 20.3923592,14.5319329 20.1711358,15.3770094 C20.0138977,15.9777671 19.8730091,16.5826995 19.7797562,16.9623974 L23.4753574,13.5966037 Z" id="形状" fill-rule="nonzero"></path>
                    <path d="M32.7302054,27.9762225 C32.7467568,29.026654 32.0005315,29.819845 30.9666755,29.8502606 C29.8882115,29.8820677 29.0673032,29.0805273 29.0727531,28.0008731 C29.0780011,26.9538212 29.8478423,26.181106 30.8915888,26.1749434 C31.9423998,26.1687807 32.713654,26.9242008 32.7302054,27.9762225 Z M30.9196454,27.1021221 C30.6195002,27.5345006 30.3096663,27.7845844 30.3306583,28.003855 C30.3526595,28.2342581 30.6915592,28.4354384 30.8917906,28.6493415 C31.0980774,28.442595 31.4416195,28.2529448 31.4710891,28.0239333 C31.4995494,27.8046627 31.2018263,27.5444404 30.9196454,27.1021221 Z" id="形状" fill-rule="nonzero"></path>
                    <path d="M30.3306583,28.003855 C30.3096663,27.7843856 30.6195002,27.5345006 30.9196454,27.1021221" id="路径"></path>
                </g>
            </g>
        </g>
    </g>
</svg>