<?xml version="1.0" encoding="UTF-8"?>
<svg width="90px" height="90px" viewBox="0 0 90 90" version="1.1" xmlns="http://www.w3.org/2000/svg" xmlns:xlink="http://www.w3.org/1999/xlink">
    <!-- Generator: Sketch 52.5 (67469) - http://www.bohemiancoding.com/sketch -->
    <title>牵引</title>
    <desc>Created with Sketch.</desc>
    <defs>
        <linearGradient x1="81.580045%" y1="16.4861964%" x2="8.9658717%" y2="77.130956%" id="linearGradient-1">
            <stop stop-color="#FFE939" offset="0%"></stop>
            <stop stop-color="#FFB539" offset="100%"></stop>
        </linearGradient>
    </defs>
    <g id="页面1" stroke="none" stroke-width="1" fill="none" fill-rule="evenodd">
        <g id="切图" transform="translate(-1295.000000, -848.000000)">
            <g id="牵引" transform="translate(1295.000000, 848.000000)">
                <circle id="椭圆形-copy-11" fill="url(#linearGradient-1)" cx="45" cy="45" r="45"></circle>
                <g id="提升牵引设备-copy" transform="translate(22.000000, 22.000000)" fill="#FFFFFF" fill-rule="nonzero">
                    <path d="M0.0332979267,0.0326241298 L2.16436413,0.0326241298 L2.16436413,45.9673759 L0.0332979267,45.9673759 L0.0332979267,0.0326241298 Z M25.6060928,13.6042553 L19.2128941,13.6042553 L19.2128941,0.0326241298 L17.0818278,0.0326241298 L17.0818278,13.6042553 L10.6886291,13.6042553 L10.6886291,17.7801418 L4.29543039,17.7801418 L4.29543039,38.6595745 L31.9992916,38.6595745 L31.9992916,17.7801418 L25.6060928,17.7801418 L25.6060928,13.6042553 Z M12.8196954,15.6921986 L23.4750266,15.6921986 L23.4750266,17.7801418 L12.8196954,17.7801418 L12.8196954,15.6921986 Z M12.8196954,36.5716312 L12.8196954,32.3957447 L17.0818278,32.3957447 L17.0818278,36.5716312 L12.8196954,36.5716312 Z M20.2784272,30.3078014 L16.0162947,30.3078014 L16.0162947,26.1319149 L20.2784272,26.1319149 L20.2784272,30.3078014 Z M19.2128941,36.5716312 L19.2128941,32.3957447 L23.4750266,32.3957447 L23.4750266,36.5716312 L19.2128941,36.5716312 Z M29.8682253,36.5716312 L25.6060928,36.5716312 L25.6060928,30.3078014 L22.4094935,30.3078014 L22.4094935,24.0439716 L13.8852285,24.0439716 L13.8852285,30.3078014 L10.6886291,30.3078014 L10.6886291,36.5716312 L6.42649665,36.5716312 L6.42649665,19.8680851 L29.8682253,19.8680851 L29.8682253,36.5716312 Z M44.657825,20.0038014 C43.4424524,19.6426476 42.1241431,20.020694 41.2993246,20.9669054 C40.4745061,21.9131169 40.2996529,23.2479897 40.8538718,24.3676029 L39.4580234,25.7038865 L39.4580234,24.0439716 L36.261424,24.0439716 L36.261424,0.0326241298 L34.1303578,0.0326241298 L34.1303578,45.9673759 L36.261424,45.9673759 L36.261424,32.3957447 L39.4580234,32.3957447 L39.4580234,28.6478865 L42.3456181,25.8291631 C42.4978858,25.9040329 42.6544225,25.9702605 42.8144527,26.0275177 C43.9069995,26.3557359 45.0952731,26.0879497 45.9316623,25.3250317 C46.7680516,24.5621137 47.125489,23.4199692 46.8693315,22.3288331 C46.6131739,21.237697 45.7823378,20.3633387 44.689791,20.0351206 L44.657825,20.0038014 Z M37.3269571,30.3078014 L36.261424,30.3078014 L36.261424,26.1319149 L37.3269571,26.1319149 L37.3269571,30.3078014 Z M44.785689,23.3027518 C44.6279844,23.8108686 44.1060612,24.122004 43.5729921,24.02568 C43.039923,23.929356 42.6656193,23.4562749 42.7032915,22.9264686 C42.7409636,22.3966623 43.178604,21.9790021 43.7201558,21.9560284 C43.8226102,21.9413176 43.9267061,21.9413176 44.0291605,21.9560284 C44.3187777,22.0255158 44.5654278,22.2107202 44.7092015,22.4666569 C44.8529752,22.7225935 44.8807171,23.0258443 44.785689,23.3027518 Z" id="形状"></path>
                </g>
            </g>
        </g>
    </g>
</svg>